<svg width="80" height="80" viewBox="0 0 80 80" fill="none" xmlns="http://www.w3.org/2000/svg">
<path d="M30.3335 60L30.3335 13.3334" stroke="url(#paint0_linear_48_5906)" stroke-width="5" stroke-linecap="round"/>
<path d="M38.667 55.8333C37.2863 55.8333 36.167 54.714 36.167 53.3333C36.167 51.9526 37.2863 50.8333 38.667 50.8333V55.8333ZM22.0003 50.8333C23.381 50.8333 24.5003 51.9526 24.5003 53.3333C24.5003 54.714 23.381 55.8333 22.0003 55.8333L22.0003 50.8333ZM18.6411 65.9877L17.4144 68.1661L18.6411 65.9877ZM42.1892 66.0069L43.5271 68.1188L42.1892 66.0069ZM41.167 63.2712L41.167 56.6667H46.167L46.167 63.2712H41.167ZM19.5003 56.6667V63.1425L14.5003 63.1425V56.6667L19.5003 56.6667ZM19.8678 63.8093C24.3773 66.3487 27.6761 67.4746 30.7029 67.4996C33.6877 67.5242 36.7723 66.4789 40.8514 63.8949L43.5271 68.1188C39.0221 70.9725 34.9809 72.5351 30.6617 72.4994C26.3845 72.4641 22.2012 70.8615 17.4144 68.1661L19.8678 63.8093ZM40.3337 55.8333H38.667V50.8333H40.3337V55.8333ZM20.3337 50.8333H22.0003L22.0003 55.8333H20.3337L20.3337 50.8333ZM19.5003 63.1425C19.5003 63.4465 19.66 63.6923 19.8678 63.8093L17.4144 68.1661C15.5767 67.1312 14.5003 65.186 14.5003 63.1425L19.5003 63.1425ZM14.5003 56.6667C14.5003 53.445 17.112 50.8333 20.3337 50.8333L20.3337 55.8333C19.8734 55.8333 19.5003 56.2064 19.5003 56.6667L14.5003 56.6667ZM41.167 56.6667C41.167 56.2064 40.7939 55.8333 40.3337 55.8333V50.8333C43.5553 50.8333 46.167 53.445 46.167 56.6667H41.167ZM46.167 63.2712C46.167 65.1878 45.2188 67.0471 43.5271 68.1188L40.8514 63.8949C41.024 63.7856 41.167 63.5615 41.167 63.2712H46.167Z" fill="url(#paint1_linear_48_5906)"/>
<path d="M52.7951 28.6633L60.562 35.6118C60.9954 35.9995 61.212 36.1934 61.1769 36.369C61.166 36.4231 61.1421 36.475 61.1071 36.5201C60.9936 36.6667 60.6874 36.6667 60.0751 36.6667L46.9999 36.6667L30.8932 36.6667C30.6584 36.6667 30.541 36.6667 30.4614 36.6089C30.4357 36.5901 30.4133 36.5674 30.395 36.5414C30.3386 36.4612 30.3417 36.345 30.3478 36.1128L30.7549 20.5951C30.7619 20.3306 30.7653 20.1983 30.8375 20.1043C30.8608 20.074 30.8886 20.0472 30.9198 20.0251C31.0168 19.9562 31.1504 19.9564 31.4177 19.9568L39.3743 19.9682L42.8154 19.973L49.6974 19.9828L56.5796 19.9926L60.2549 19.9979C60.8096 19.9987 61.087 19.9991 61.1732 20.1375C61.1998 20.1804 61.2151 20.2299 61.2177 20.282C61.2261 20.4503 61.0077 20.6413 60.571 21.0232L52.8485 27.7753C52.6305 27.966 52.5214 28.0613 52.495 28.1761C52.4865 28.213 52.4842 28.2505 52.4883 28.2869C52.5011 28.4003 52.5991 28.488 52.7951 28.6633Z" fill="#071947"/>
<path d="M60.562 35.6118L58.7762 37.5235L58.7762 37.5235L60.562 35.6118ZM52.7951 28.6633L51.0093 30.5751L51.0093 30.5751L52.7951 28.6633ZM52.8485 27.7753L51.2852 25.9871L51.2852 25.9871L52.8485 27.7753ZM60.571 21.0232L59.0077 19.2349L59.0077 19.2349L60.571 21.0232ZM60.0751 36.6667L59.8323 39.1505L59.8323 39.1505L60.0751 36.6667ZM46.9999 36.6667L46.7571 39.1505L46.9999 36.6667ZM30.8932 36.6667L31.136 34.1829L31.136 34.1829L30.8932 36.6667ZM49.6974 19.9828L49.451 22.4666L49.451 22.4666L49.6974 19.9828ZM42.8154 19.973L43.0618 17.4892L43.0618 17.4892L42.8154 19.973ZM39.3743 19.9682L39.128 22.452L39.1279 22.452L39.3743 19.9682ZM31.4177 19.9568L31.1713 22.4406L31.1713 22.4406L31.4177 19.9568ZM60.2549 19.9979L60.0085 22.4817L60.2549 19.9979ZM56.5796 19.9926L56.826 17.5088L56.826 17.5088L56.5796 19.9926ZM30.7549 20.5951L33.2702 20.4193L30.7549 20.5951ZM30.3478 36.1128L27.8325 36.2885L27.8325 36.2885L30.3478 36.1128ZM30.9198 20.0251L32.2544 21.9937L32.2544 21.9937L30.9198 20.0251ZM30.8375 20.1043L32.7891 21.4787L30.8375 20.1043ZM30.4614 36.6089L28.847 38.6589L28.8469 38.6588L30.4614 36.6089ZM30.395 36.5414L32.5076 34.9974L32.5077 34.9974L30.395 36.5414ZM52.4883 28.2869L49.9871 28.7938L49.9871 28.7937L52.4883 28.2869ZM52.495 28.1761L50.0438 27.8519L50.0438 27.8519L52.495 28.1761ZM61.2177 20.282L63.7308 19.9218L63.7308 19.9219L61.2177 20.282ZM61.1732 20.1375L58.994 21.581L58.994 21.581L61.1732 20.1375ZM61.1769 36.369L58.7099 36.1179L58.7099 36.1178L61.1769 36.369ZM61.1071 36.5201L63.0512 37.9043L63.0512 37.9044L61.1071 36.5201ZM58.7762 37.5235L51.0093 30.5751L54.5808 26.7516L62.3477 33.7L58.7762 37.5235ZM51.2852 25.9871L59.0077 19.2349L62.1342 22.8114L54.4117 29.5636L51.2852 25.9871ZM59.8323 39.1505L46.7571 39.1505L47.2427 34.1829L60.3179 34.1829L59.8323 39.1505ZM46.7571 39.1505L30.6504 39.1505L31.136 34.1829L47.2427 34.1829L46.7571 39.1505ZM49.451 22.4666L42.569 22.4568L43.0618 17.4892L49.9439 17.499L49.451 22.4666ZM42.569 22.4568L39.128 22.452L39.6207 17.4843L43.0618 17.4892L42.569 22.4568ZM39.1279 22.452L31.1713 22.4406L31.6641 17.473L39.6207 17.4843L39.1279 22.452ZM60.0085 22.4817L56.3332 22.4764L56.826 17.5088L60.5014 17.5141L60.0085 22.4817ZM56.3332 22.4764L49.451 22.4666L49.9439 17.499L56.826 17.5088L56.3332 22.4764ZM33.2702 20.4193L32.863 35.937L27.8325 36.2885L28.2397 20.7708L33.2702 20.4193ZM31.1713 22.4406C31.0967 22.4405 31.067 22.4406 31.0472 22.4409C31.0267 22.4413 31.0672 22.4414 31.137 22.4339C31.2764 22.4189 31.7477 22.3535 32.2544 21.9937L29.5851 18.0565C30.1889 17.6278 30.7755 17.5281 31.0728 17.496C31.3244 17.4689 31.5883 17.4729 31.6641 17.473L31.1713 22.4406ZM28.2397 20.7708C28.2416 20.6958 28.2449 20.4345 28.2791 20.1863C28.3197 19.8931 28.4364 19.3154 28.8859 18.7298L32.7891 21.4787C33.1664 20.9872 33.2454 20.5227 33.2644 20.3852C33.2739 20.3164 33.2749 20.2763 33.2739 20.2966C33.273 20.3161 33.2721 20.3455 33.2702 20.4193L28.2397 20.7708ZM32.2544 21.9937C32.4574 21.8496 32.638 21.6756 32.7891 21.4787L28.8859 18.7298C29.0835 18.4724 29.3198 18.2449 29.5851 18.0565L32.2544 21.9937ZM30.6504 39.1505C30.5867 39.1505 30.344 39.1537 30.1158 39.1297C29.8404 39.1007 29.3348 39.0134 28.847 38.6589L32.0759 34.5589C31.6676 34.2622 31.2606 34.2038 31.1224 34.1893C31.0562 34.1823 31.0156 34.1822 31.0309 34.1825C31.046 34.1828 31.07 34.1829 31.136 34.1829L30.6504 39.1505ZM32.863 35.937C32.8613 36.0023 32.8608 36.0261 32.8607 36.041C32.8606 36.0561 32.8616 36.016 32.8562 35.9503C32.8451 35.8132 32.7967 35.409 32.5076 34.9974L28.2824 38.0854C27.9369 37.5936 27.8619 37.0912 27.8397 36.8179C27.8214 36.5915 27.8309 36.3515 27.8325 36.2885L32.863 35.937ZM28.8469 38.6588C28.6279 38.4996 28.4375 38.3063 28.2823 38.0853L32.5077 34.9974C32.389 34.8284 32.2434 34.6806 32.0759 34.5589L28.8469 38.6588ZM51.0093 30.5751C50.953 30.5247 50.759 30.3564 50.5998 30.1739C50.4132 29.9598 50.0669 29.5031 49.9871 28.7938L54.9895 27.7801C54.9225 27.1841 54.6316 26.8279 54.5461 26.7299C54.5026 26.68 54.4741 26.6546 54.4893 26.669C54.504 26.6827 54.5263 26.7028 54.5808 26.7516L51.0093 30.5751ZM54.4117 29.5636C54.3511 29.6166 54.3263 29.6384 54.3099 29.6533C54.2928 29.6688 54.3245 29.6412 54.3743 29.5879C54.4719 29.4832 54.8071 29.1039 54.9462 28.5004L50.0438 27.8519C50.2094 27.1335 50.6122 26.6492 50.8255 26.4204C51.0074 26.2253 51.2226 26.0419 51.2852 25.9871L54.4117 29.5636ZM49.9871 28.7937C49.9523 28.484 49.9714 28.1656 50.0438 27.8519L54.9462 28.5003C55.0015 28.2604 55.0161 28.0169 54.9895 27.7801L49.9871 28.7937ZM59.0077 19.2349C59.1231 19.1341 59.1963 19.0699 59.2539 19.0176C59.3144 18.9627 59.3116 18.9621 59.2825 18.9935C59.2622 19.0153 59.1273 19.1594 58.9952 19.4C58.8467 19.6703 58.6779 20.1079 58.7046 20.6421L63.7308 19.9219C63.7918 21.1429 62.9992 21.98 62.8401 22.1515C62.6044 22.4054 62.3003 22.6662 62.1342 22.8114L59.0077 19.2349ZM60.5014 17.5141C60.7123 17.5144 61.0957 17.5109 61.4214 17.549C61.6414 17.5748 62.7274 17.6898 63.3523 18.6941L58.994 21.581C59.2674 22.0203 59.6416 22.2492 59.9077 22.3602C60.1444 22.459 60.3302 22.4799 60.3581 22.4831C60.3983 22.4878 60.4003 22.4855 60.3223 22.4838C60.248 22.4821 60.155 22.4819 60.0085 22.4817L60.5014 17.5141ZM58.7046 20.6421C58.7215 20.9806 58.8207 21.3025 58.994 21.581L63.3523 18.6941C63.5789 19.0583 63.7086 19.4792 63.7308 19.9218L58.7046 20.6421ZM62.3477 33.7C62.5183 33.8527 62.804 34.1028 63.0165 34.346C63.1306 34.4765 63.9059 35.3118 63.6438 36.6203L58.7099 36.1178C58.5925 36.704 58.7249 37.1622 58.8419 37.4209C58.9464 37.6518 59.0642 37.783 59.0737 37.7939C59.0929 37.8158 59.088 37.8075 59.0253 37.7489C58.9654 37.6929 58.8899 37.6252 58.7762 37.5235L62.3477 33.7ZM60.3179 34.1829C60.4785 34.1829 60.5853 34.1828 60.6718 34.1811C60.7624 34.1793 60.7724 34.1765 60.7416 34.1799C60.7262 34.1816 60.5395 34.1998 60.2835 34.2971C59.9968 34.4061 59.542 34.6466 59.1631 35.1358L63.0512 37.9044C62.2054 38.9964 60.9984 39.0967 60.8147 39.1169C60.4727 39.1543 60.0734 39.1505 59.8323 39.1505L60.3179 34.1829ZM63.6438 36.6202C63.5518 37.0799 63.3482 37.5208 63.0512 37.9043L59.1631 35.1359C58.936 35.4291 58.7803 35.7663 58.7099 36.1179L63.6438 36.6202Z" fill="url(#paint2_linear_48_5906)"/>
<circle cx="30.3333" cy="13.3333" r="3.33333" fill="url(#paint3_linear_48_5906)"/>
<defs>
<linearGradient id="paint0_linear_48_5906" x1="30.3335" y1="36.6667" x2="31.3335" y2="36.6667" gradientUnits="userSpaceOnUse">
<stop stop-color="#F8CA00"/>
<stop offset="1" stop-color="#F8A400"/>
</linearGradient>
<linearGradient id="paint1_linear_48_5906" x1="30.3337" y1="70" x2="30.3337" y2="53.3333" gradientUnits="userSpaceOnUse">
<stop stop-color="#F8CA00"/>
<stop offset="1" stop-color="#F8A400"/>
</linearGradient>
<linearGradient id="paint2_linear_48_5906" x1="47.2484" y1="19.7429" x2="46.9428" y2="36.9614" gradientUnits="userSpaceOnUse">
<stop stop-color="#F8CA00"/>
<stop offset="1" stop-color="#F8A400"/>
</linearGradient>
<linearGradient id="paint3_linear_48_5906" x1="27" y1="13.3333" x2="33.6667" y2="13.3333" gradientUnits="userSpaceOnUse">
<stop stop-color="#F8CA00"/>
<stop offset="1" stop-color="#F8A400"/>
</linearGradient>
</defs>
</svg>
