<svg width="80" height="80" viewBox="0 0 80 80" fill="none" xmlns="http://www.w3.org/2000/svg">
<path d="M31.4956 14.1404C36.5692 11.2865 42.7641 11.2865 47.8377 14.1404L57.8377 19.7654C63.0856 22.7174 66.3333 28.2704 66.3333 34.2917V44.7967C66.3333 50.818 63.0856 56.371 57.8377 59.323L47.8377 64.948C42.7641 67.8019 36.5692 67.8019 31.4956 64.948L21.4956 59.323C16.2477 56.371 13 50.818 13 44.7967V34.2917C13 28.2704 16.2477 22.7174 21.4956 19.7654L31.4956 14.1404Z" fill="#071947"/>
<path d="M21.4956 19.7654L22.7213 21.9443L21.4956 19.7654ZM21.4956 59.323L20.27 61.5019L21.4956 59.323ZM47.8377 64.948L46.612 62.7691L47.8377 64.948ZM31.4956 64.948L32.7213 62.7691L31.4956 64.948ZM57.8377 59.323L59.0633 61.5019L57.8377 59.323ZM57.8377 19.7654L56.612 21.9443V21.9443L57.8377 19.7654ZM47.8377 14.1404L49.0633 11.9615V11.9615L47.8377 14.1404ZM31.4956 14.1404L30.27 11.9615L31.4956 14.1404ZM46.612 16.3193L56.612 21.9443L59.0633 17.5865L49.0633 11.9615L46.612 16.3193ZM63.8333 34.2917V44.7967H68.8333V34.2917H63.8333ZM56.612 57.1441L46.612 62.7691L49.0633 67.1269L59.0633 61.5019L56.612 57.1441ZM32.7213 62.7691L22.7213 57.1441L20.27 61.5019L30.27 67.1269L32.7213 62.7691ZM15.5 44.7967V34.2917H10.5V44.7967H15.5ZM22.7213 21.9443L32.7213 16.3193L30.27 11.9615L20.27 17.5865L22.7213 21.9443ZM15.5 34.2917C15.5 29.1736 18.2605 24.4535 22.7213 21.9443L20.27 17.5865C14.2349 20.9812 10.5 27.3673 10.5 34.2917H15.5ZM22.7213 57.1441C18.2605 54.6349 15.5 49.9148 15.5 44.7967H10.5C10.5 51.7212 14.2349 58.1072 20.27 61.5019L22.7213 57.1441ZM46.612 62.7691C42.2995 65.1949 37.0338 65.1949 32.7213 62.7691L30.27 67.1269C36.1046 70.4089 43.2287 70.4089 49.0633 67.1269L46.612 62.7691ZM63.8333 44.7967C63.8333 49.9148 61.0728 54.6349 56.612 57.1441L59.0633 61.5019C65.0985 58.1072 68.8333 51.7212 68.8333 44.7967H63.8333ZM56.612 21.9443C61.0728 24.4535 63.8333 29.1736 63.8333 34.2917H68.8333C68.8333 27.3673 65.0985 20.9812 59.0633 17.5865L56.612 21.9443ZM49.0633 11.9615C43.2287 8.67951 36.1046 8.67951 30.27 11.9615L32.7213 16.3193C37.0338 13.8936 42.2995 13.8936 46.612 16.3193L49.0633 11.9615Z" fill="url(#paint0_linear_48_5742)"/>
<path d="M39.6665 26.2106V41.5952L49.6665 46.2106" stroke="url(#paint1_linear_48_5742)" stroke-width="5" stroke-linecap="round" stroke-linejoin="round"/>
<defs>
<linearGradient id="paint0_linear_48_5742" x1="13" y1="39.5442" x2="66.3333" y2="39.5442" gradientUnits="userSpaceOnUse">
<stop stop-color="#F8CA00"/>
<stop offset="1" stop-color="#F8A400"/>
</linearGradient>
<linearGradient id="paint1_linear_48_5742" x1="39.6665" y1="36.2106" x2="49.6665" y2="36.2106" gradientUnits="userSpaceOnUse">
<stop stop-color="#F8CA00"/>
<stop offset="1" stop-color="#F8A400"/>
</linearGradient>
</defs>
</svg>
