<?xml version="1.0" standalone="no"?>
<!DOCTYPE svg PUBLIC "-//W3C//DTD SVG 20010904//EN"
 "http://www.w3.org/TR/2001/REC-SVG-20010904/DTD/svg10.dtd">
<svg version="1.0" xmlns="http://www.w3.org/2000/svg"
 width="80.000000pt" height="80.000000pt" viewBox="0 0 80.000000 80.000000"
 preserveAspectRatio="xMidYMid meet">
<metadata>
Created by potrace 1.14, written by Peter Selinger 2001-2017
</metadata>
<g transform="translate(0.000000,80.000000) scale(0.100000,-0.100000)"
fill="#000000" stroke="none">
<path d="M258 765 c-2 -3 -27 -9 -54 -15 -120 -23 -136 -29 -129 -41 3 -5 -1
-6 -9 -3 -21 8 -20 -5 1 -23 14 -11 14 -14 3 -10 -12 4 -16 -3 -15 -24 0 -16
4 -28 10 -25 6 2 9 -13 9 -35 -2 -56 -3 -61 -12 -55 -4 2 -8 -31 -8 -75 0 -43
4 -79 8 -79 4 0 8 -5 8 -11 0 -5 -4 -8 -8 -5 -4 2 -9 -9 -10 -25 -1 -16 2 -29
8 -29 5 0 7 6 4 14 -3 8 -1 16 4 20 5 3 7 -5 6 -17 -1 -12 -3 -26 -3 -30 -1
-5 -4 -6 -8 -4 -5 3 -9 -20 -10 -50 -1 -40 2 -53 11 -50 7 3 13 -1 13 -8 0 -7
-5 -11 -12 -9 -6 3 -11 -5 -11 -16 0 -11 5 -19 11 -17 11 5 14 -77 3 -89 -4
-3 -5 7 -3 23 2 16 -1 36 -6 44 -6 9 -9 -3 -7 -39 1 -28 6 -52 10 -52 5 0 6
-5 2 -12 -4 -7 -3 -8 5 -4 6 4 8 12 5 18 -5 7 -2 8 5 4 7 -5 10 -13 8 -20 -3
-7 15 -11 59 -11 34 -1 61 2 59 5 -2 3 -26 6 -54 5 -28 -1 -48 1 -45 5 11 10
124 5 120 -6 -2 -6 2 -11 10 -11 8 0 13 6 10 14 -7 18 17 12 26 -7 5 -12 7
-11 8 5 4 45 5 731 2 743 -4 12 -15 16 -24 7z m-178 -299 c0 -3 -4 -8 -10 -11
-5 -3 -10 -1 -10 4 0 6 5 11 10 11 6 0 10 -2 10 -4z m0 -240 c0 -3 -4 -8 -10
-11 -5 -3 -10 -1 -10 4 0 6 5 11 10 11 6 0 10 -2 10 -4z"/>
<path d="M430 663 c-40 -59 -77 -110 -81 -113 -15 -12 -22 -62 -21 -164 l1
-109 92 -138 c51 -77 94 -139 96 -139 2 0 2 4 -1 9 -3 5 1 12 10 15 11 4 15 2
11 -7 -4 -10 6 -13 33 -13 21 0 36 4 34 8 -3 5 -11 5 -17 2 -7 -4 -8 -3 -4 2
11 11 68 14 61 2 -3 -4 -11 -5 -17 -2 -7 4 -9 3 -4 -1 10 -11 66 -14 73 -4 2
4 -5 6 -16 4 -11 -2 -18 0 -15 5 3 5 16 7 30 4 13 -2 26 0 30 6 3 5 -47 89
-110 186 -64 97 -119 183 -122 191 -4 11 65 125 109 178 31 37 108 149 108
156 0 5 -17 9 -37 10 -21 0 -45 2 -53 3 -8 2 -38 7 -65 10 l-50 7 -75 -108z
m140 -643 c0 -5 -4 -10 -10 -10 -5 0 -10 5 -10 10 0 6 5 10 10 10 6 0 10 -4
10 -10z"/>
<path d="M50 582 c0 -18 4 -32 9 -32 5 0 8 11 6 25 -4 38 -15 43 -15 7z"/>
</g>
</svg>
