<svg width="24" height="24" viewBox="0 0 24 24" fill="none" xmlns="http://www.w3.org/2000/svg">
<path d="M12 6C8.04003 6 5.01115 8.27449 2.4755 11.3974C2.19014 11.7488 2.19014 12.2512 2.4755 12.6026C5.01115 15.7255 8.04003 18 12 18C15.96 18 18.9889 15.7255 21.5245 12.6026C21.8099 12.2512 21.8099 11.7488 21.5245 11.3974C18.9889 8.27449 15.96 6 12 6Z" fill="#192E63"/>
<path d="M15.0659 9.93422C14.7731 9.64132 14.2982 9.64131 14.0053 9.9342C13.7124 10.2271 13.7124 10.702 14.0053 10.9949L15.0659 9.93422ZM14.5355 14.0001L14.0052 13.4697L14.5355 14.0001ZM11.5303 13.4697C11.2375 13.1768 10.7626 13.1768 10.4697 13.4697C10.1768 13.7625 10.1768 14.2374 10.4697 14.5303L11.5303 13.4697ZM14.0053 10.9949C14.1678 11.1574 14.2967 11.3503 14.3846 11.5626L15.7704 10.9886C15.6071 10.5943 15.3677 10.236 15.0659 9.93422L14.0053 10.9949ZM14.3846 11.5626C14.4725 11.7749 14.5178 12.0025 14.5178 12.2323L16.0178 12.2323C16.0178 11.8055 15.9338 11.3829 15.7704 10.9886L14.3846 11.5626ZM14.5178 12.2323C14.5178 12.4621 14.4725 12.6897 14.3846 12.902L15.7704 13.476C15.9337 13.0817 16.0178 12.6591 16.0178 12.2323L14.5178 12.2323ZM14.3846 12.902C14.2966 13.1143 14.1677 13.3072 14.0052 13.4697L15.0659 14.5304C15.3676 14.2286 15.6071 13.8704 15.7704 13.476L14.3846 12.902ZM14.0052 13.4697C13.8427 13.6322 13.6498 13.7611 13.4375 13.8491L14.0115 15.2349C14.4058 15.0716 14.7641 14.8322 15.0659 14.5304L14.0052 13.4697ZM13.4375 13.8491C13.2251 13.937 12.9976 13.9823 12.7678 13.9823L12.7677 15.4823C13.1945 15.4823 13.6172 15.3982 14.0115 15.2349L13.4375 13.8491ZM12.7678 13.9823C12.538 13.9823 12.3104 13.937 12.0981 13.849L11.524 15.2349C11.9183 15.3982 12.3409 15.4823 12.7677 15.4823L12.7678 13.9823ZM12.0981 13.849C11.8858 13.7611 11.6928 13.6322 11.5303 13.4697L10.4697 14.5303C10.7714 14.8321 11.1297 15.0715 11.524 15.2349L12.0981 13.849Z" fill="white"/>
<path d="M12 6.7C12.3866 6.7 12.7 6.3866 12.7 6C12.7 5.6134 12.3866 5.3 12 5.3V6.7ZM4.27125 15.5229C4.56002 15.7799 5.00249 15.7542 5.25954 15.4654C5.51659 15.1767 5.49088 14.7342 5.20212 14.4771L4.27125 15.5229ZM8.0408 16.4025C7.6916 16.2366 7.27404 16.3852 7.10815 16.7344C6.94226 17.0836 7.09087 17.5012 7.44006 17.6671L8.0408 16.4025ZM17.0318 6.57052C16.6905 6.38888 16.2666 6.51828 16.0849 6.85956C15.9033 7.20083 16.0327 7.62473 16.374 7.80637L17.0318 6.57052ZM21.5245 11.3974L20.9811 11.8386L21.5245 11.3974ZM3.01893 11.8386C5.49682 8.78685 8.34662 6.7 12 6.7V5.3C7.73344 5.3 4.52547 7.76213 1.93208 10.9561L3.01893 11.8386ZM20.9811 12.1614C18.5032 15.2131 15.6534 17.3 12 17.3V18.7C16.2666 18.7 19.4745 16.2379 22.0679 13.0439L20.9811 12.1614ZM5.20212 14.4771C4.43698 13.796 3.7122 13.0152 3.01887 12.1613L1.93202 13.0438C2.66202 13.9429 3.43828 14.7814 4.27125 15.5229L5.20212 14.4771ZM12 17.3C10.5553 17.3 9.24645 16.9752 8.0408 16.4025L7.44006 17.6671C8.82248 18.3238 10.3357 18.7 12 18.7V17.3ZM16.374 7.80637C18.0773 8.71295 19.5896 10.1249 20.9811 11.8386L22.0679 10.9562C20.6086 9.15881 18.9583 7.59591 17.0318 6.57052L16.374 7.80637ZM22.0679 13.0439C22.562 12.4353 22.5621 11.5648 22.0679 10.9562L20.9811 11.8386C21.0577 11.933 21.0577 12.067 20.9811 12.1614L22.0679 13.0439ZM1.93208 10.9561C1.438 11.5646 1.43785 12.4352 1.93202 13.0438L3.01887 12.1613C2.94233 12.067 2.94229 11.933 3.01893 11.8386L1.93208 10.9561Z" fill="white"/>
<path d="M20.1217 3.11547L2.9998 20.9996" stroke="white" stroke-width="1.5" stroke-linecap="round" stroke-linejoin="round"/>
</svg>
