<svg width="80" height="80" viewBox="0 0 80 80" fill="none" xmlns="http://www.w3.org/2000/svg">
<rect x="12" y="17" width="56.6667" height="46.6667" rx="9.33333" fill="#071947" stroke="url(#paint0_linear_88_1747)" stroke-width="5"/>
<path d="M22.1465 53.1653H30.4798" stroke="url(#paint1_linear_88_1747)" stroke-width="5" stroke-linecap="round"/>
<circle cx="55.4798" cy="26.4986" r="3.33333" fill="url(#paint2_linear_88_1747)"/>
<circle cx="52.1463" cy="26.4986" r="3.33333" fill="url(#paint3_linear_88_1747)"/>
<path d="M13.6665 34.4999L11.1665 34.4999L11.1665 39.4999L13.6665 39.4999L13.6665 34.4999ZM65.3332 39.4999L67.8332 39.4999L67.8332 34.4999L65.3332 34.4999L65.3332 39.4999ZM13.6665 39.4999L65.3332 39.4999L65.3332 34.4999L13.6665 34.4999L13.6665 39.4999Z" fill="url(#paint4_linear_88_1747)"/>
<defs>
<linearGradient id="paint0_linear_88_1747" x1="12" y1="40.3333" x2="68.6667" y2="40.3333" gradientUnits="userSpaceOnUse">
<stop stop-color="#F8CA00"/>
<stop offset="1" stop-color="#F8A400"/>
</linearGradient>
<linearGradient id="paint1_linear_88_1747" x1="22.1465" y1="53.6653" x2="30.4798" y2="53.6653" gradientUnits="userSpaceOnUse">
<stop stop-color="#F8CA00"/>
<stop offset="1" stop-color="#F8A400"/>
</linearGradient>
<linearGradient id="paint2_linear_88_1747" x1="52.1465" y1="26.4986" x2="58.8132" y2="26.4986" gradientUnits="userSpaceOnUse">
<stop stop-color="#F8CA00"/>
<stop offset="1" stop-color="#F8A400"/>
</linearGradient>
<linearGradient id="paint3_linear_88_1747" x1="48.813" y1="26.4986" x2="55.4797" y2="26.4986" gradientUnits="userSpaceOnUse">
<stop stop-color="#F8CA00"/>
<stop offset="1" stop-color="#F8A400"/>
</linearGradient>
<linearGradient id="paint4_linear_88_1747" x1="13.6688" y1="37.2423" x2="65.3309" y2="36.7576" gradientUnits="userSpaceOnUse">
<stop stop-color="#F8CA00"/>
<stop offset="1" stop-color="#F8A400"/>
</linearGradient>
</defs>
</svg>
