<svg width="80" height="80" viewBox="0 0 80 80" fill="none" xmlns="http://www.w3.org/2000/svg">
<path d="M66.333 43L66.333 54.342C66.333 59.488 62.1646 63.6639 57.0187 63.6661C45.0539 63.6713 35.4053 63.6326 22.3559 63.6401C17.1932 63.643 12.9997 59.4619 12.9997 54.2992L12.9997 43C12.9997 37.8453 17.1784 33.6666 22.333 33.6666H22.9997L56.9997 33.6666C62.1543 33.6666 66.333 37.8453 66.333 43Z" fill="#071947"/>
<path d="M39.6665 16.9999L39.6665 40.3333" stroke="url(#paint0_linear_88_161)" stroke-width="5" stroke-linecap="round" stroke-dasharray="0.67 0.67"/>
<path d="M46.3333 36.9999L42.4402 42.8396C41.1208 44.8187 38.2126 44.8187 36.8932 42.8396L33 36.9999" stroke="url(#paint1_linear_88_161)" stroke-width="5" stroke-linecap="round" stroke-dasharray="0.67 0.67"/>
<path d="M54.6663 36.1666C53.2856 36.1666 52.1663 35.0473 52.1663 33.6666C52.1663 32.2859 53.2856 31.1666 54.6663 31.1666L54.6663 36.1666ZM22.9997 31.1666C24.3804 31.1666 25.4997 32.2859 25.4997 33.6666C25.4997 35.0473 24.3804 36.1666 22.9997 36.1666L22.9997 31.1666ZM63.833 54.342L63.833 43H68.833V54.342H63.833ZM15.4997 43L15.4997 54.2992L10.4997 54.2992L10.4997 43L15.4997 43ZM22.3544 61.1401C35.3194 61.1326 45.1504 61.1713 57.0176 61.1662L57.0198 66.1661C44.9575 66.1714 35.4912 66.1325 22.3573 66.1401L22.3544 61.1401ZM56.9997 36.1666H54.6663L54.6663 31.1666L56.9997 31.1666L56.9997 36.1666ZM22.333 31.1666H22.9997L22.9997 36.1666H22.333L22.333 31.1666ZM15.4997 54.2992C15.4997 58.0771 18.5695 61.1422 22.3544 61.1401L22.3573 66.1401C15.8168 66.1438 10.4997 60.8466 10.4997 54.2992L15.4997 54.2992ZM10.4997 43C10.4997 36.4646 15.7976 31.1666 22.333 31.1666L22.333 36.1666C18.5591 36.1666 15.4997 39.226 15.4997 43L10.4997 43ZM63.833 43C63.833 39.226 60.7736 36.1666 56.9997 36.1666L56.9997 31.1666C63.535 31.1666 68.833 36.4646 68.833 43H63.833ZM68.833 54.342C68.833 60.8662 63.548 66.1633 57.0198 66.1661L57.0176 61.1662C60.7813 61.1645 63.833 58.1097 63.833 54.342H68.833Z" fill="url(#paint2_linear_88_161)"/>
<defs>
<linearGradient id="paint0_linear_88_161" x1="40.1665" y1="40.3333" x2="40.1665" y2="16.9999" gradientUnits="userSpaceOnUse">
<stop stop-color="#F8CA00"/>
<stop offset="1" stop-color="#F8A400"/>
</linearGradient>
<linearGradient id="paint1_linear_88_161" x1="39.6667" y1="46.9999" x2="39.6667" y2="36.9999" gradientUnits="userSpaceOnUse">
<stop stop-color="#F8CA00"/>
<stop offset="1" stop-color="#F8A400"/>
</linearGradient>
<linearGradient id="paint2_linear_88_161" x1="39.6663" y1="63.6666" x2="39.6663" y2="33.6666" gradientUnits="userSpaceOnUse">
<stop stop-color="#F8CA00"/>
<stop offset="1" stop-color="#F8A400"/>
</linearGradient>
</defs>
</svg>
