<svg width="80" height="80" viewBox="0 0 80 80" fill="none" xmlns="http://www.w3.org/2000/svg">
<path d="M24 63.6666H14L22.3333 48.6666L37.3333 55.3332L29 71.9999L24 63.6666Z" fill="#071947"/>
<circle cx="40.6663" cy="30.3333" r="23.3333" fill="#071947" stroke="url(#paint0_linear_88_880)" stroke-width="5"/>
<path d="M40.1908 18.4635C40.3405 18.0028 40.9922 18.0028 41.1419 18.4635L43.5476 25.8676C43.6145 26.0736 43.8065 26.213 44.0231 26.213H51.8083C52.2926 26.213 52.494 26.8329 52.1021 27.1176L45.8039 31.6935C45.6286 31.8209 45.5553 32.0465 45.6222 32.2526L48.0279 39.6566C48.1776 40.1173 47.6504 40.5004 47.2585 40.2157L40.9602 35.6397C40.785 35.5124 40.5477 35.5124 40.3724 35.6397L34.0742 40.2157C33.6823 40.5004 33.1551 40.1173 33.3047 39.6566L35.7105 32.2526C35.7774 32.0465 35.7041 31.8209 35.5288 31.6935L29.2305 27.1176C28.8387 26.8329 29.0401 26.213 29.5244 26.213H37.3095C37.5262 26.213 37.7181 26.0736 37.7851 25.8676L40.1908 18.4635Z" stroke="url(#paint1_linear_88_880)" stroke-width="5"/>
<path d="M19.4703 54.5123L17.3978 53.1143C17.4081 53.0954 17.4187 53.0767 17.4294 53.0581L19.4703 54.5123ZM33.0556 63.6768L30.9707 62.3016C30.9748 62.2939 30.9789 62.2863 30.9831 62.2787L33.0556 63.6768ZM37.158 56.1697L39.2947 57.4421C39.2744 57.4847 39.253 57.5266 39.2305 57.5678L37.158 56.1697ZM23.9899 62.4735L24.5307 65.0306L23.9899 62.4735ZM24.3819 62.4489L23.5843 64.8622L24.3819 62.4489ZM24.6533 62.8807L26.8768 62.0204L24.6533 62.8807ZM24.4619 62.498L23.0643 64.543L24.4619 62.498ZM27.777 71.5154L25.5535 72.3757L27.777 71.5154ZM28.1792 72.2746L28.8679 69.8175L28.1792 72.2746ZM28.3212 72.2916L27.945 69.7073L28.3212 72.2916ZM15.2911 64.2572L15.8319 66.8143L15.2911 64.2572ZM14.4394 64.289L15.9843 62.3755L14.4394 64.289ZM14.352 64.1566L16.5527 63.2357L14.352 64.1566ZM14.7502 61.7001L23.449 59.9164L24.5307 65.0306L15.8319 66.8143L14.7502 61.7001ZM26.8768 62.0204L30.0004 70.6551L25.5535 72.3757L22.4298 63.741L26.8768 62.0204ZM12.5913 61.9098L17.3978 53.1143L21.5429 55.9104L16.7364 64.706L12.5913 61.9098ZM17.4294 53.0581L22.2145 44.8138L26.2963 47.7223L21.5112 55.9666L17.4294 53.0581ZM26.7261 70.2638L30.9707 62.3016L35.1405 65.052L30.8958 73.0142L26.7261 70.2638ZM30.9831 62.2787L33.718 57.274L37.863 60.0701L35.1281 65.0749L30.9831 62.2787ZM33.718 57.274L35.0854 54.7716L39.2305 57.5678L37.863 60.0701L33.718 57.274ZM35.0213 54.8973L36.6682 51.4381L40.9416 53.9829L39.2947 57.4421L35.0213 54.8973ZM23.449 59.9164C23.5028 59.9054 23.716 59.8585 23.9255 59.8392C24.1805 59.8157 24.6456 59.8058 25.1794 60.0355L23.5843 64.8622C24.0304 65.0541 24.4009 65.0358 24.5325 65.0236C24.5946 65.0179 24.6319 65.0105 24.6198 65.0127C24.6078 65.0149 24.588 65.0188 24.5307 65.0306L23.449 59.9164ZM22.4298 63.741C22.408 63.6807 22.4004 63.6599 22.3956 63.6474C22.3908 63.6349 22.4052 63.6741 22.4341 63.7356C22.4955 63.8662 22.6801 64.2253 23.0643 64.543L25.8595 60.4529C26.3192 60.8332 26.561 61.2769 26.6798 61.5298C26.7775 61.7377 26.8563 61.9638 26.8768 62.0204L22.4298 63.741ZM25.1794 60.0355C25.4218 60.1397 25.6508 60.2803 25.8595 60.4529L23.0643 64.543C23.2239 64.675 23.399 64.7825 23.5843 64.8622L25.1794 60.0355ZM30.0004 70.6551C30.0458 70.7804 30.0725 70.8542 30.0945 70.9113C30.1177 70.9717 30.1136 70.9555 30.0892 70.9057C30.0687 70.8638 29.9812 70.6876 29.8087 70.4837C29.6155 70.2553 29.3053 69.9806 28.8679 69.8175L27.4905 74.7317C26.4609 74.3479 26.0071 73.447 25.8837 73.1952C25.7382 72.8983 25.6145 72.5445 25.5535 72.3757L30.0004 70.6551ZM30.8958 73.0142C30.8149 73.166 30.6496 73.4852 30.4696 73.7433C30.3171 73.9621 29.759 74.7421 28.6973 74.8759L27.945 69.7073C27.494 69.7641 27.1545 69.9611 26.9361 70.1403C26.741 70.3004 26.6332 70.4532 26.6078 70.4896C26.5775 70.5329 26.5716 70.5479 26.6018 70.4939C26.6305 70.4428 26.666 70.3765 26.7261 70.2638L30.8958 73.0142ZM28.8679 69.8175C28.5688 69.7061 28.2534 69.6684 27.945 69.7073L28.6973 74.8759C28.2941 74.9267 27.8816 74.8774 27.4905 74.7317L28.8679 69.8175ZM15.8319 66.8143C15.6511 66.8513 15.3045 66.9269 14.9945 66.95C14.7616 66.9674 13.7669 67.043 12.8945 66.2024L15.9843 62.3755C15.6076 62.0125 15.2077 61.8584 14.927 61.7975C14.6772 61.7432 14.4969 61.7567 14.4629 61.7593C14.4187 61.7626 14.4117 61.7662 14.4784 61.7542C14.5417 61.7427 14.6212 61.7265 14.7502 61.7001L15.8319 66.8143ZM16.7364 64.706C16.6701 64.8273 16.6293 64.9022 16.5981 64.9622C16.5653 65.0255 16.5708 65.0197 16.5885 64.9761C16.602 64.9428 16.674 64.7654 16.7095 64.4952C16.7494 64.1916 16.7469 63.7369 16.5527 63.2357L12.1512 65.0775C11.7014 63.9171 12.0997 62.9387 12.1926 62.7095C12.3163 62.4045 12.4984 62.0799 12.5913 61.9098L16.7364 64.706ZM12.8945 66.2024C12.572 65.8917 12.3175 65.5065 12.1512 65.0775L16.5527 63.2357C16.4256 62.9077 16.231 62.6131 15.9843 62.3755L12.8945 66.2024Z" fill="url(#paint2_linear_88_880)"/>
<path d="M45.9267 63.2947L48.2192 62.3074C48.226 62.3198 48.2327 62.3323 48.2392 62.3448L45.9267 63.2947ZM61.0851 57.068L58.7859 58.043C58.7814 58.0347 58.777 58.0263 58.7726 58.018L61.0851 57.068ZM57.4444 50.1277L59.6812 49.0436C59.7079 49.0876 59.7331 49.1324 59.7569 49.1777L57.4444 50.1277ZM54.908 63.6223L52.5212 62.5599L54.908 63.6223ZM55.1039 63.314L53.5565 61.3001L55.1039 63.314ZM55.5791 63.3129L55.9885 60.9614L55.5791 63.3129ZM55.184 63.2771L54.2378 60.986L55.184 63.2771ZM64.3379 65.1067L64.7473 62.7552L64.3379 65.1067ZM65.1607 65.1568L63.4473 63.259L65.1607 65.1568ZM65.2493 65.048L67.6268 66.1303L65.2493 65.048ZM51.3027 71.4201L48.9158 70.3577L51.3027 71.4201ZM50.842 72.0947L50.1709 69.7347L50.842 72.0947ZM50.6862 72.0909L50.1884 74.4229L50.6862 72.0909ZM48.9158 70.3577L52.5212 62.5599L57.2949 64.6848L53.6895 72.4826L48.9158 70.3577ZM55.9885 60.9614L64.7473 62.7552L63.9285 67.4583L55.1697 65.6645L55.9885 60.9614ZM47.8623 72.343L43.6142 64.2446L48.2392 62.3448L52.4873 70.4432L47.8623 72.343ZM43.6343 64.2821L38.3597 54.6264L42.9447 52.6517L48.2192 62.3074L43.6343 64.2821ZM62.6888 65.2834L58.7859 58.043L63.3842 56.093L67.2871 63.3334L62.6888 65.2834ZM58.7726 58.018L56.3455 53.391L60.9705 51.4912L63.3976 56.1181L58.7726 58.018ZM56.3455 53.391L55.1319 51.0776L59.7569 49.1777L60.9705 51.4912L56.3455 53.391ZM55.2076 51.2118L53.3898 48.2061L57.8634 46.0379L59.6812 49.0436L55.2076 51.2118ZM52.5212 62.5599C52.542 62.515 52.6258 62.3271 52.7279 62.156C52.8532 61.9462 53.1004 61.5908 53.5565 61.3001L56.6512 65.328C57.0318 65.0855 57.2211 64.7974 57.2874 64.6864C57.3183 64.6348 57.3341 64.6011 57.3296 64.6103C57.3251 64.6195 57.3176 64.6356 57.2949 64.6848L52.5212 62.5599ZM55.1697 65.6645C55.1116 65.6526 55.0926 65.6488 55.0815 65.6467C55.0706 65.6447 55.1105 65.6526 55.1756 65.6601C55.3154 65.676 55.6883 65.7048 56.1302 65.5682L54.2378 60.986C54.7674 60.8222 55.2354 60.848 55.4996 60.8781C55.7152 60.9028 55.9355 60.9505 55.9885 60.9614L55.1697 65.6645ZM53.5565 61.3001C53.7657 61.1667 53.9948 61.0611 54.2378 60.986L56.1302 65.5682C56.316 65.5108 56.4912 65.43 56.6512 65.328L53.5565 61.3001ZM64.7473 62.7552C64.8724 62.7808 64.9442 62.7954 65.0001 62.8057C65.059 62.8165 65.0394 62.811 64.981 62.8056C64.9302 62.8008 64.7356 62.7843 64.475 62.8245C64.1839 62.8695 63.8027 62.987 63.4473 63.259L66.8742 67.0546C66.0312 67.6997 65.0658 67.6266 64.7764 67.5998C64.4521 67.5698 64.0934 67.4921 63.9285 67.4583L64.7473 62.7552ZM67.2871 63.3334C67.3638 63.4755 67.5348 63.7837 67.6484 64.0726C67.7497 64.3304 68.0709 65.1946 67.6268 66.1303L62.8717 63.9658C62.6845 64.3604 62.6617 64.7389 62.6901 65.0166C62.7155 65.2652 62.7822 65.439 62.8 65.4842C62.8204 65.5362 62.8311 65.5528 62.805 65.5016C62.7802 65.4532 62.747 65.3913 62.6888 65.2834L67.2871 63.3334ZM63.4473 63.259C63.199 63.4489 63.0025 63.6903 62.8717 63.9658L67.6268 66.1303C67.4558 66.4905 67.1988 66.8062 66.8742 67.0546L63.4473 63.259ZM53.6895 72.4826C53.6172 72.6388 53.4756 72.9559 53.312 73.2156C53.1796 73.4258 52.6641 74.2318 51.5131 74.4546L50.1709 69.7347C49.6787 69.83 49.3298 70.0528 49.1156 70.242C48.9246 70.4107 48.8276 70.5636 48.8066 70.5969C48.7808 70.6379 48.7776 70.6497 48.8051 70.5935C48.8313 70.5402 48.8631 70.4718 48.9158 70.3577L53.6895 72.4826ZM52.4873 70.4432C52.5486 70.56 52.5855 70.6301 52.6156 70.6847C52.6474 70.7423 52.6433 70.7304 52.6144 70.6881C52.591 70.6537 52.4825 70.4959 52.2787 70.3177C52.0501 70.1179 51.6841 69.878 51.184 69.7589L50.1884 74.4229C49.0188 74.1445 48.4429 73.3124 48.2947 73.0955C48.1116 72.8274 47.9463 72.503 47.8623 72.343L52.4873 70.4432ZM51.5131 74.4546C51.0808 74.5383 50.6276 74.5275 50.1884 74.4229L51.184 69.7589C50.848 69.679 50.5015 69.6707 50.1709 69.7347L51.5131 74.4546Z" fill="url(#paint3_linear_88_880)"/>
<defs>
<linearGradient id="paint0_linear_88_880" x1="17.333" y1="30.3333" x2="63.9997" y2="30.3333" gradientUnits="userSpaceOnUse">
<stop stop-color="#F8CA00"/>
<stop offset="1" stop-color="#F8A400"/>
</linearGradient>
<linearGradient id="paint1_linear_88_880" x1="27.333" y1="30.3333" x2="53.9997" y2="30.3333" gradientUnits="userSpaceOnUse">
<stop stop-color="#F8CA00"/>
<stop offset="1" stop-color="#F8A400"/>
</linearGradient>
<linearGradient id="paint2_linear_88_880" x1="33.3728" y1="63.3181" x2="18.9618" y2="55.443" gradientUnits="userSpaceOnUse">
<stop stop-color="#F8CA00"/>
<stop offset="1" stop-color="#F8A400"/>
</linearGradient>
<linearGradient id="paint3_linear_88_880" x1="60.9809" y1="56.6406" x2="46.2736" y2="64.3555" gradientUnits="userSpaceOnUse">
<stop stop-color="#F8CA00"/>
<stop offset="1" stop-color="#F8A400"/>
</linearGradient>
</defs>
</svg>
