<svg width="80" height="80" viewBox="0 0 80 80" fill="none" xmlns="http://www.w3.org/2000/svg">
<path d="M68.8333 62.4252C68.8333 61.0445 67.714 59.9252 66.3333 59.9252C64.9526 59.9252 63.8333 61.0445 63.8333 62.4252H68.8333ZM63.3745 67.5717L64.9581 69.5062L64.9581 69.5062L63.3745 67.5717ZM55.1548 71.5762L54.4347 69.1821L55.1548 71.5762ZM43.498 73.55L43.3453 71.0546L43.498 73.55ZM30.9911 73.055L31.3499 70.5809V70.5809L30.9911 73.055ZM20.4093 70.2013L21.4164 67.9131H21.4164L20.4093 70.2013ZM14.101 65.622L12.0564 67.0606H12.0564L14.101 65.622ZM15.7462 61.3579C16.3121 60.0984 15.7499 58.6187 14.4904 58.0529C13.231 57.487 11.7513 58.0492 11.1854 59.3087L15.7462 61.3579ZM63.8333 62.4252C63.8333 63.1981 63.4005 64.3196 61.7909 65.6373L64.9581 69.5062C67.2373 67.6405 68.8333 65.2331 68.8333 62.4252H63.8333ZM61.791 65.6373C60.1869 66.9503 57.7034 68.199 54.4347 69.1821L55.8748 73.9702C59.5207 72.8737 62.6734 71.3765 64.9581 69.5062L61.791 65.6373ZM54.4347 69.1821C51.1895 70.1582 47.3869 70.8073 43.3453 71.0546L43.6508 76.0453C48.0151 75.7782 52.2054 75.0739 55.8748 73.9702L54.4347 69.1821ZM43.3453 71.0546C39.3067 71.3018 35.1904 71.1379 31.3499 70.5809L30.6323 75.5292C34.8239 76.1371 39.2834 76.3126 43.6508 76.0453L43.3453 71.0546ZM31.3499 70.5809C27.5014 70.0228 24.1015 69.0948 21.4164 67.9131L19.4023 72.4895C22.5929 73.8936 26.4488 74.9224 30.6323 75.5292L31.3499 70.5809ZM21.4164 67.9131C18.6918 66.714 16.9875 65.38 16.1455 64.1833L12.0564 67.0606C13.6299 69.2968 16.2512 71.1027 19.4023 72.4895L21.4164 67.9131ZM16.1455 64.1833C15.3915 63.1116 15.3547 62.2293 15.7462 61.3579L11.1854 59.3087C9.99627 61.9553 10.395 64.6994 12.0564 67.0606L16.1455 64.1833Z" fill="url(#paint0_linear_88_706)"/>
<mask id="path-2-inside-1_88_706" fill="white">
<path d="M18.1905 38.0959C11.7082 23.3346 22.9894 6.99988 39.6663 6.99988C56.3432 6.99988 67.6245 23.3346 61.1422 38.0959L51.8631 59.2259C49.7941 63.9372 44.9891 66.9999 39.6663 66.9999C34.3436 66.9999 29.5385 63.9372 27.4696 59.2259L18.1905 38.0959Z"/>
</mask>
<path d="M18.1905 38.0959C11.7082 23.3346 22.9894 6.99988 39.6663 6.99988C56.3432 6.99988 67.6245 23.3346 61.1422 38.0959L51.8631 59.2259C49.7941 63.9372 44.9891 66.9999 39.6663 66.9999C34.3436 66.9999 29.5385 63.9372 27.4696 59.2259L18.1905 38.0959Z" fill="#071947"/>
<path d="M27.4696 59.2259L22.8916 61.2363L27.4696 59.2259ZM51.8631 59.2259L47.2851 57.2155L51.8631 59.2259ZM61.1422 38.0959L65.7202 40.1063L61.1422 38.0959ZM18.1905 38.0959L22.7685 36.0855L18.1905 38.0959ZM56.5641 36.0855L47.2851 57.2155L56.4411 61.2363L65.7202 40.1063L56.5641 36.0855ZM32.0476 57.2155L22.7685 36.0855L13.6125 40.1063L22.8916 61.2363L32.0476 57.2155ZM39.6663 61.9999C36.2389 61.9999 33.2838 60.0304 32.0476 57.2155L22.8916 61.2363C25.7933 67.844 32.4483 71.9999 39.6663 71.9999V61.9999ZM47.2851 57.2155C46.0489 60.0304 43.0938 61.9999 39.6663 61.9999V71.9999C46.8844 71.9999 53.5394 67.844 56.4411 61.2363L47.2851 57.2155ZM39.6663 11.9999C53.053 11.9999 61.4696 24.9151 56.5641 36.0855L65.7202 40.1063C73.7794 21.7541 59.6335 1.99988 39.6663 1.99988V11.9999ZM39.6663 1.99988C19.6992 1.99988 5.55327 21.7541 13.6125 40.1063L22.7685 36.0855C17.8631 24.9151 26.2797 11.9999 39.6663 11.9999V1.99988Z" fill="url(#paint1_linear_88_706)" mask="url(#path-2-inside-1_88_706)"/>
<circle cx="39.6667" cy="26.9999" r="6.66667" fill="url(#paint2_linear_88_706)"/>
<defs>
<linearGradient id="paint0_linear_88_706" x1="13" y1="66.9999" x2="66.3333" y2="66.9999" gradientUnits="userSpaceOnUse">
<stop stop-color="#F8CA00"/>
<stop offset="1" stop-color="#F8A400"/>
</linearGradient>
<linearGradient id="paint1_linear_88_706" x1="16.333" y1="36.9999" x2="62.9997" y2="36.9999" gradientUnits="userSpaceOnUse">
<stop stop-color="#F8CA00"/>
<stop offset="1" stop-color="#F8A400"/>
</linearGradient>
<linearGradient id="paint2_linear_88_706" x1="33" y1="26.9999" x2="46.3333" y2="26.9999" gradientUnits="userSpaceOnUse">
<stop stop-color="#F8CA00"/>
<stop offset="1" stop-color="#F8A400"/>
</linearGradient>
</defs>
</svg>
