<svg width="80" height="80" viewBox="0 0 80 80" fill="none" xmlns="http://www.w3.org/2000/svg">
<path d="M54.8287 26.6653C44.3105 28.3711 35.4425 28.3211 25.2293 26.6515C18.26 25.5122 11.9935 31.6136 13.6486 38.4656L19.5396 62.8543C20.5522 67.0463 24.3104 70.0003 28.631 70.0003H51.4746C55.7952 70.0003 59.5533 67.0463 60.5659 62.8543L66.4456 38.5124C68.1033 31.6496 61.8105 25.533 54.8287 26.6653Z" fill="#071947"/>
<path d="M25.2293 26.6515L24.8259 29.1187L25.2293 26.6515ZM54.8287 26.6653L55.2289 29.1331L54.8287 26.6653ZM66.4456 38.5124L68.8757 39.0994L66.4456 38.5124ZM60.5659 62.8543L62.996 63.4413L60.5659 62.8543ZM19.5396 62.8543L21.9697 62.2673L19.5396 62.8543ZM13.6486 38.4656L16.0787 37.8786L13.6486 38.4656ZM24.8259 29.1187C35.3018 30.8312 44.4412 30.8826 55.2289 29.1331L54.4285 24.1976C44.1799 25.8596 35.5832 25.8109 25.6326 24.1842L24.8259 29.1187ZM64.0155 37.9254L58.1358 62.2673L62.996 63.4413L68.8757 39.0994L64.0155 37.9254ZM51.4746 67.5003H28.631V72.5003H51.4746V67.5003ZM21.9697 62.2673L16.0787 37.8786L11.2185 39.0525L17.1095 63.4413L21.9697 62.2673ZM28.631 67.5003C25.4618 67.5003 22.7105 65.334 21.9697 62.2673L17.1095 63.4413C18.3939 68.7586 23.1589 72.5003 28.631 72.5003V67.5003ZM58.1358 62.2673C57.395 65.334 54.6437 67.5003 51.4746 67.5003V72.5003C56.9466 72.5003 61.7116 68.7586 62.996 63.4413L58.1358 62.2673ZM55.2289 29.1331C60.6668 28.2512 65.2024 33.0115 64.0155 37.9254L68.8757 39.0994C71.0042 30.2877 62.9541 22.8149 54.4285 24.1976L55.2289 29.1331ZM25.6326 24.1842C17.1123 22.7914 9.09374 30.2562 11.2185 39.0525L16.0787 37.8786C14.8933 32.9711 19.4077 28.233 24.8259 29.1187L25.6326 24.1842Z" fill="url(#paint0_linear_88_622)"/>
<path d="M46.6675 49.906L33.6914 49.7371" stroke="url(#paint1_linear_88_622)" stroke-width="5" stroke-miterlimit="10" stroke-linecap="round" stroke-linejoin="round"/>
<path d="M40.0948 56.3094L40.2637 43.3333" stroke="url(#paint2_linear_88_622)" stroke-width="5" stroke-miterlimit="10" stroke-linecap="round" stroke-linejoin="round"/>
<path d="M24.1665 36.1077C24.1665 37.4884 25.2858 38.6077 26.6665 38.6077C28.0472 38.6077 29.1665 37.4884 29.1665 36.1077L24.1665 36.1077ZM26.6665 21.6666L29.1665 21.6667L26.6665 21.6666ZM50.8332 36.6667C50.8332 38.0474 51.9525 39.1667 53.3332 39.1667C54.7139 39.1667 55.8332 38.0474 55.8332 36.6667H50.8332ZM29.1665 36.1077L29.1665 21.6667L24.1665 21.6666L24.1665 36.1077L29.1665 36.1077ZM38.3332 12.5H41.6665V7.5H38.3332V12.5ZM41.6665 12.5C46.7291 12.5 50.8332 16.6041 50.8332 21.6667H55.8332C55.8332 13.8426 49.4905 7.5 41.6665 7.5V12.5ZM29.1665 21.6667C29.1665 16.604 33.2706 12.5 38.3332 12.5V7.5C30.5092 7.5 24.1665 13.8426 24.1665 21.6666L29.1665 21.6667ZM50.8332 21.6667V36.6667H55.8332V21.6667H50.8332Z" fill="url(#paint3_linear_88_622)"/>
<defs>
<linearGradient id="paint0_linear_88_622" x1="13.3804" y1="48.257" x2="66.7137" y2="48.257" gradientUnits="userSpaceOnUse">
<stop stop-color="#F8CA00"/>
<stop offset="1" stop-color="#F8A400"/>
</linearGradient>
<linearGradient id="paint1_linear_88_622" x1="33.6849" y1="50.2371" x2="46.661" y2="50.406" gradientUnits="userSpaceOnUse">
<stop stop-color="#F8CA00"/>
<stop offset="1" stop-color="#F8A400"/>
</linearGradient>
<linearGradient id="paint2_linear_88_622" x1="39.7637" y1="43.3268" x2="39.5948" y2="56.3029" gradientUnits="userSpaceOnUse">
<stop stop-color="#F8CA00"/>
<stop offset="1" stop-color="#F8A400"/>
</linearGradient>
<linearGradient id="paint3_linear_88_622" x1="26.6665" y1="23.3333" x2="53.3332" y2="23.3333" gradientUnits="userSpaceOnUse">
<stop stop-color="#F8CA00"/>
<stop offset="1" stop-color="#F8A400"/>
</linearGradient>
</defs>
</svg>
