<svg width="80" height="80" viewBox="0 0 80 80" fill="none" xmlns="http://www.w3.org/2000/svg">
<path d="M10.8335 58.6668C10.8335 60.0475 11.9528 61.1668 13.3335 61.1668C14.7142 61.1668 15.8335 60.0475 15.8335 58.6668H10.8335ZM64.1668 58.6668C64.1668 60.0475 65.2861 61.1668 66.6668 61.1668C68.0475 61.1668 69.1668 60.0475 69.1668 58.6668H64.1668ZM15.8335 58.6668V35.3334H10.8335V58.6668H15.8335ZM64.1668 35.3334V58.6668H69.1668V35.3334H64.1668ZM40.0002 14.5001C53.6711 14.5001 64.1668 24.1306 64.1668 35.3334H69.1668C69.1668 20.7629 55.7845 9.50009 40.0002 9.50009V14.5001ZM15.8335 35.3334C15.8335 24.1306 26.3293 14.5001 40.0002 14.5001V9.50009C24.2159 9.50009 10.8335 20.7629 10.8335 35.3334H15.8335Z" fill="url(#paint0_linear_88_1651)"/>
<path d="M30 56.2595C30 51.6571 26.269 47.9262 21.6667 47.9262C17.0643 47.9262 13.3333 51.6571 13.3333 56.2595V60.3336C13.3333 64.936 17.0643 68.6669 21.6667 68.6669C26.269 68.6669 30 64.936 30 60.3336V56.2595Z" fill="#071947" stroke="url(#paint1_linear_88_1651)" stroke-width="5"/>
<rect x="50" y="47.9262" width="16.6667" height="20.7407" rx="8.33333" fill="#071947" stroke="url(#paint2_linear_88_1651)" stroke-width="5"/>
<path d="M66.6665 55.3334H69.3332C69.7014 55.3334 69.9998 55.6319 69.9998 56.0001V63.5556C69.9998 63.9238 69.7014 64.2223 69.3332 64.2223H66.6665" stroke="url(#paint3_linear_88_1651)" stroke-width="5" stroke-linecap="round"/>
<path d="M13.3335 55.3334H10.6668C10.2986 55.3334 10.0002 55.6319 10.0002 56.0001V63.5556C10.0002 63.9238 10.2986 64.2223 10.6668 64.2223H13.3335" stroke="url(#paint4_linear_88_1651)" stroke-width="5" stroke-linecap="round"/>
<defs>
<linearGradient id="paint0_linear_88_1651" x1="13.3335" y1="35.3334" x2="66.6668" y2="35.3334" gradientUnits="userSpaceOnUse">
<stop stop-color="#F8CA00"/>
<stop offset="1" stop-color="#F8A400"/>
</linearGradient>
<linearGradient id="paint1_linear_88_1651" x1="30" y1="58.2965" x2="13.3333" y2="58.2965" gradientUnits="userSpaceOnUse">
<stop stop-color="#F8CA00"/>
<stop offset="1" stop-color="#F8A400"/>
</linearGradient>
<linearGradient id="paint2_linear_88_1651" x1="50" y1="58.2965" x2="66.6667" y2="58.2965" gradientUnits="userSpaceOnUse">
<stop stop-color="#F8CA00"/>
<stop offset="1" stop-color="#F8A400"/>
</linearGradient>
<linearGradient id="paint3_linear_88_1651" x1="66.6665" y1="59.7778" x2="69.9998" y2="59.7778" gradientUnits="userSpaceOnUse">
<stop stop-color="#F8CA00"/>
<stop offset="1" stop-color="#F8A400"/>
</linearGradient>
<linearGradient id="paint4_linear_88_1651" x1="13.3335" y1="59.7778" x2="10.0002" y2="59.7778" gradientUnits="userSpaceOnUse">
<stop stop-color="#F8CA00"/>
<stop offset="1" stop-color="#F8A400"/>
</linearGradient>
</defs>
</svg>
