<svg width="80" height="80" viewBox="0 0 80 80" fill="none" xmlns="http://www.w3.org/2000/svg">
<path d="M20 19.3333C20 14.1787 24.1787 10 29.3333 10H50.6667C55.8213 10 60 14.1787 60 19.3333V60.6667C60 65.8213 55.8213 70 50.6667 70H29.3333C24.1787 70 20 65.8213 20 60.6667V19.3333Z" fill="#071947" stroke="url(#paint0_linear_88_3768)" stroke-width="5"/>
<circle cx="39.9998" cy="60" r="3.33333" fill="url(#paint1_linear_88_3768)"/>
<path d="M33.3335 17.5C31.9528 17.5 30.8335 18.6193 30.8335 20C30.8335 21.3807 31.9528 22.5 33.3335 22.5V17.5ZM46.6668 22.5C48.0475 22.5 49.1668 21.3807 49.1668 20C49.1668 18.6193 48.0475 17.5 46.6668 17.5V22.5ZM33.3335 22.5L46.6668 22.5V17.5L33.3335 17.5V22.5Z" fill="url(#paint2_linear_88_3768)"/>
<defs>
<linearGradient id="paint0_linear_88_3768" x1="20" y1="40" x2="60" y2="40" gradientUnits="userSpaceOnUse">
<stop stop-color="#F8CA00"/>
<stop offset="1" stop-color="#F8A400"/>
</linearGradient>
<linearGradient id="paint1_linear_88_3768" x1="36.6665" y1="60" x2="43.3332" y2="60" gradientUnits="userSpaceOnUse">
<stop stop-color="#F8CA00"/>
<stop offset="1" stop-color="#F8A400"/>
</linearGradient>
<linearGradient id="paint2_linear_88_3768" x1="33.3335" y1="20.5" x2="46.6668" y2="20.5" gradientUnits="userSpaceOnUse">
<stop stop-color="#F8CA00"/>
<stop offset="1" stop-color="#F8A400"/>
</linearGradient>
</defs>
</svg>
