<svg width="80" height="80" viewBox="0 0 80 80" fill="none" xmlns="http://www.w3.org/2000/svg">
<path d="M10 55.5577V65.3332C10 67.1742 11.4924 68.6666 13.3333 68.6666H53.3333C55.1743 68.6666 56.6667 67.1742 56.6667 65.3332V55.9818C56.6667 51.6625 54.3884 47.7612 50.8052 46.3877C45.6837 44.4246 39.1875 41.9999 33.3333 41.9999C27.6 41.9999 19.9529 44.3255 15.4173 46.2655C12.055 47.7037 10 51.4547 10 55.5577Z" fill="#071947"/>
<path d="M43.3335 21.9999C43.3335 27.5228 38.8563 31.9999 33.3335 31.9999C27.8106 31.9999 23.3335 27.5228 23.3335 21.9999C23.3335 16.4771 27.8106 11.9999 33.3335 11.9999C38.8563 11.9999 43.3335 16.4771 43.3335 21.9999Z" fill="#071947" stroke="url(#paint0_linear_88_4170)" stroke-width="5"/>
<path d="M7.5 65.3327C7.5 66.7135 8.61929 67.8327 10 67.8327C11.3807 67.8327 12.5 66.7135 12.5 65.3327H7.5ZM15.4173 45.7318L14.541 43.3904L15.4173 45.7318ZM33.3333 41.9994L33.3136 44.4993L33.3333 41.9994ZM50.8052 45.8387L51.6002 43.4685V43.4685L50.8052 45.8387ZM54.1667 65.3327C54.1667 66.7135 55.286 67.8327 56.6667 67.8327C58.0474 67.8327 59.1667 66.7135 59.1667 65.3327H54.1667ZM12.5 65.3327V53.8625H7.5V65.3327H12.5ZM16.2936 48.0732C20.7703 46.3977 26.6466 44.4467 33.3136 44.4993L33.3531 39.4995C25.7268 39.4393 19.1354 41.6709 14.541 43.3904L16.2936 48.0732ZM33.3136 44.4993C39.8222 44.5507 44.783 46.4558 50.0102 48.209L51.6002 43.4685C46.5844 41.7862 40.816 39.5584 33.3531 39.4995L33.3136 44.4993ZM50.0102 48.209C52.4978 49.0433 54.1667 51.4449 54.1667 54.2335H59.1667C59.1667 49.4634 56.279 45.0378 51.6002 43.4685L50.0102 48.209ZM12.5 53.8625C12.5 51.2049 14.0071 48.929 16.2936 48.0732L14.541 43.3904C10.1028 45.0515 7.5 49.3398 7.5 53.8625H12.5ZM54.1667 59.7831V65.3327H59.1667V59.7831H54.1667ZM54.1667 54.2335V57.0083H59.1667V54.2335H54.1667ZM54.1667 57.0083V59.7831H59.1667V57.0083H54.1667Z" fill="url(#paint1_linear_88_4170)"/>
<path d="M50 29.4999C48.6193 29.4999 47.5 30.6192 47.5 31.9999C47.5 33.3806 48.6193 34.4999 50 34.4999V29.4999ZM50 9.49991C48.6193 9.49991 47.5 10.6192 47.5 11.9999C47.5 13.3806 48.6193 14.4999 50 14.4999V9.49991ZM57.5 21.9999C57.5 26.142 54.1421 29.4999 50 29.4999V34.4999C56.9036 34.4999 62.5 28.9035 62.5 21.9999H57.5ZM50 14.4999C54.1421 14.4999 57.5 17.8578 57.5 21.9999H62.5C62.5 15.0963 56.9036 9.49991 50 9.49991V14.4999Z" fill="url(#paint2_linear_88_4170)"/>
<path d="M51.6665 37.8333C50.2858 37.8333 49.1665 38.9525 49.1665 40.3333C49.1665 41.714 50.2858 42.8333 51.6665 42.8333V37.8333ZM67.4999 65.3333C67.4999 66.714 68.6192 67.8333 69.9999 67.8333C71.3806 67.8333 72.4999 66.714 72.4999 65.3333H67.4999ZM66.948 46.0816L65.4769 48.1029L66.948 46.0816ZM51.6665 42.8333C57.1014 42.8333 62.2682 45.7675 65.4769 48.1029L68.4192 44.0603C64.9601 41.5426 58.7185 37.8333 51.6665 37.8333V42.8333ZM67.4999 52.5265V65.3333H72.4999V52.5265H67.4999ZM65.4769 48.1029C66.7504 49.0298 67.4999 50.6394 67.4999 52.5265H72.4999C72.4999 49.3651 71.2275 46.1043 68.4192 44.0603L65.4769 48.1029Z" fill="url(#paint3_linear_88_4170)"/>
<defs>
<linearGradient id="paint0_linear_88_4170" x1="23.3335" y1="21.9999" x2="43.3335" y2="21.9999" gradientUnits="userSpaceOnUse">
<stop stop-color="#F8CA00"/>
<stop offset="1" stop-color="#F8A400"/>
</linearGradient>
<linearGradient id="paint1_linear_88_4170" x1="10" y1="53.6655" x2="56.6667" y2="53.6655" gradientUnits="userSpaceOnUse">
<stop stop-color="#F8CA00"/>
<stop offset="1" stop-color="#F8A400"/>
</linearGradient>
<linearGradient id="paint2_linear_88_4170" x1="50" y1="21.9999" x2="60" y2="21.9999" gradientUnits="userSpaceOnUse">
<stop stop-color="#F8CA00"/>
<stop offset="1" stop-color="#F8A400"/>
</linearGradient>
<linearGradient id="paint3_linear_88_4170" x1="51.6665" y1="52.8332" x2="69.9999" y2="52.8332" gradientUnits="userSpaceOnUse">
<stop stop-color="#F8CA00"/>
<stop offset="1" stop-color="#F8A400"/>
</linearGradient>
</defs>
</svg>
