<svg width="80" height="80" viewBox="0 0 80 80" fill="none" xmlns="http://www.w3.org/2000/svg">
<path d="M13.3335 48.6337V24.4083C13.3335 17.9693 18.7415 12.9265 24.9997 13.5298L28.0545 13.8243C30.6624 14.0758 33.1531 12.6598 34.3246 10.2598C36.6631 5.46891 43.3373 5.46891 45.6757 10.2598C46.8472 12.6598 49.3379 14.0758 51.9459 13.8243L55.0007 13.5298C61.2589 12.9265 66.6668 17.9693 66.6668 24.4083V48.6337C66.6668 51.8608 65.2743 54.9228 62.8625 56.9989L46.8625 70.7719C42.895 74.1871 37.1053 74.1871 33.1378 70.7719L17.1378 56.9989C14.726 54.9228 13.3335 51.8608 13.3335 48.6337Z" fill="#071947"/>
<path d="M17.1378 56.9989L15.5069 58.8936H15.5069L17.1378 56.9989ZM33.1378 70.7719L34.7688 68.8772V68.8772L33.1378 70.7719ZM46.8625 70.7719L45.2315 68.8772V68.8772L46.8625 70.7719ZM62.8625 56.9989L64.4935 58.8936L62.8625 56.9989ZM28.0545 13.8243L28.2944 11.3359L28.0545 13.8243ZM24.9997 13.5298L25.2396 11.0414L24.9997 13.5298ZM55.0007 13.5298L55.2406 16.0183L55.0007 13.5298ZM51.9459 13.8243L51.706 11.3359L51.9459 13.8243ZM45.6757 10.2598L47.9224 9.16318V9.16318L45.6757 10.2598ZM34.3246 10.2598L32.078 9.16318V9.16318L34.3246 10.2598ZM10.8335 24.4083V48.6337H15.8335V24.4083H10.8335ZM15.5069 58.8936L31.5069 72.6666L34.7688 68.8772L18.7688 55.1042L15.5069 58.8936ZM48.4935 72.6666L64.4935 58.8936L61.2315 55.1042L45.2315 68.8772L48.4935 72.6666ZM69.1668 48.6337V24.4083H64.1668V48.6337H69.1668ZM28.2944 11.3359L25.2396 11.0414L24.7598 16.0183L27.8145 16.3128L28.2944 11.3359ZM54.7607 11.0414L51.706 11.3359L52.1858 16.3128L55.2406 16.0183L54.7607 11.0414ZM51.706 11.3359C50.1627 11.4847 48.6483 10.6503 47.9224 9.16318L43.4291 11.3564C45.0461 14.6693 48.5131 16.6669 52.1858 16.3128L51.706 11.3359ZM32.078 9.16318C31.3521 10.6503 29.8376 11.4847 28.2944 11.3359L27.8145 16.3128C31.4872 16.6669 34.9542 14.6693 36.5713 11.3564L32.078 9.16318ZM36.5713 11.3564C37.9964 8.43671 42.0039 8.4367 43.4291 11.3564L47.9224 9.16318C44.6706 2.50111 35.3298 2.50111 32.078 9.16318L36.5713 11.3564ZM69.1668 24.4083C69.1668 16.5593 62.5521 10.2902 54.7607 11.0414L55.2406 16.0183C59.9656 15.5627 64.1668 19.3793 64.1668 24.4083H69.1668ZM64.4935 58.8936C67.4658 56.3349 69.1668 52.577 69.1668 48.6337H64.1668C64.1668 51.1446 63.0827 53.5106 61.2315 55.1042L64.4935 58.8936ZM31.5068 72.6666C36.4119 76.8889 43.5884 76.8889 48.4935 72.6666L45.2315 68.8772C42.2016 71.4853 37.7987 71.4853 34.7688 68.8772L31.5068 72.6666ZM10.8335 48.6337C10.8335 52.577 12.5345 56.3349 15.5069 58.8936L18.7688 55.1042C16.9176 53.5106 15.8335 51.1446 15.8335 48.6337H10.8335ZM15.8335 24.4083C15.8335 19.3793 20.0347 15.5627 24.7598 16.0183L25.2396 11.0414C17.4483 10.2902 10.8335 16.5593 10.8335 24.4083H15.8335Z" fill="url(#paint0_linear_88_1412)"/>
<path d="M30 39.9999L36.3158 46.6666L50 33.3333" stroke="url(#paint1_linear_88_1412)" stroke-width="5" stroke-linecap="round" stroke-linejoin="round"/>
<defs>
<linearGradient id="paint0_linear_88_1412" x1="13.3335" y1="40" x2="66.6668" y2="40" gradientUnits="userSpaceOnUse">
<stop stop-color="#F8CA00"/>
<stop offset="1" stop-color="#F8A400"/>
</linearGradient>
<linearGradient id="paint1_linear_88_1412" x1="30" y1="39.9999" x2="50" y2="39.9999" gradientUnits="userSpaceOnUse">
<stop stop-color="#F8CA00"/>
<stop offset="1" stop-color="#F8A400"/>
</linearGradient>
</defs>
</svg>
