<svg width="80" height="80" viewBox="0 0 80 80" fill="none" xmlns="http://www.w3.org/2000/svg">
<path d="M35.2099 16.5623C36.2828 11.8126 43.0505 11.8126 44.1234 16.5623L44.5023 18.2397C45.1976 21.318 48.7302 22.7812 51.3985 21.0962L52.8525 20.178C56.9698 17.5781 61.7552 22.3636 59.1553 26.4808L58.2371 27.9348C56.5521 30.6032 58.0153 34.1357 61.0937 34.8311L62.771 35.2099C67.5208 36.2828 67.5208 43.0505 62.771 44.1234L61.0936 44.5023C58.0153 45.1976 56.5521 48.7302 58.2371 51.3985L59.1553 52.8525C61.7552 56.9698 56.9698 61.7552 52.8525 59.1553L51.3985 58.2371C48.7302 56.5521 45.1976 58.0153 44.5023 61.0937L44.1234 62.771C43.0505 67.5208 36.2828 67.5208 35.2099 62.771L34.8311 61.0936C34.1357 58.0153 30.6032 56.5521 27.9348 58.2371L26.4808 59.1553C22.3636 61.7552 17.5781 56.9698 20.178 52.8525L21.0962 51.3985C22.7812 48.7302 21.318 45.1976 18.2397 44.5023L16.5623 44.1234C11.8126 43.0505 11.8126 36.2828 16.5623 35.2099L18.2397 34.8311C21.318 34.1357 22.7812 30.6032 21.0962 27.9348L20.178 26.4808C17.5781 22.3636 22.3636 17.5781 26.4808 20.178L27.9348 21.0962C30.6032 22.7812 34.1357 21.318 34.8311 18.2397L35.2099 16.5623Z" fill="#071947"/>
<path d="M27.9348 21.0962L29.2696 18.9824L27.9348 21.0962ZM34.8311 18.2397L32.3925 17.6889V17.6889L34.8311 18.2397ZM20.178 26.4808L22.2919 25.146V25.146L20.178 26.4808ZM26.4808 20.178L25.146 22.2919L26.4808 20.178ZM18.2397 34.8311L18.7905 37.2696L18.2397 34.8311ZM21.0962 27.9348L18.9824 29.2696L18.9824 29.2696L21.0962 27.9348ZM16.5623 44.1234L16.0115 46.562H16.0115L16.5623 44.1234ZM16.5623 35.2099L16.0115 32.7714L16.5623 35.2099ZM21.0962 51.3985L18.9824 50.0637L21.0962 51.3985ZM18.2397 44.5023L18.7905 42.0637H18.7905L18.2397 44.5023ZM26.4808 59.1553L25.146 57.0415H25.146L26.4808 59.1553ZM20.178 52.8525L22.2919 54.1874L20.178 52.8525ZM34.8311 61.0936L37.2696 60.5428V60.5428L34.8311 61.0936ZM27.9348 58.2371L29.2696 60.3509H29.2696L27.9348 58.2371ZM44.1234 62.771L46.562 63.3219L44.1234 62.771ZM35.2099 62.771L32.7714 63.3219L35.2099 62.771ZM51.3985 58.2371L50.0637 60.3509V60.3509L51.3985 58.2371ZM44.5023 61.0937L42.0637 60.5428L44.5023 61.0937ZM59.1553 52.8525L61.2691 51.5177L59.1553 52.8525ZM52.8525 59.1553L54.1874 57.0415V57.0415L52.8525 59.1553ZM61.0936 44.5023L60.5428 42.0637H60.5428L61.0936 44.5023ZM58.2371 51.3985L56.1233 52.7334V52.7334L58.2371 51.3985ZM62.771 35.2099L62.2202 37.6485H62.2202L62.771 35.2099ZM62.771 44.1234L63.3219 46.562L62.771 44.1234ZM58.2371 27.9348L56.1233 26.6V26.6L58.2371 27.9348ZM61.0937 34.8311L61.6445 32.3925H61.6445L61.0937 34.8311ZM52.8525 20.178L54.1874 22.2919L52.8525 20.178ZM59.1553 26.4808L61.2691 27.8156V27.8156L59.1553 26.4808ZM44.5023 18.2397L42.0637 18.7905L44.5023 18.2397ZM51.3985 21.0962L50.0637 18.9824L50.0637 18.9824L51.3985 21.0962ZM44.1234 16.5623L46.562 16.0115L44.1234 16.5623ZM35.2099 16.5623L37.6485 17.1131V17.1131L35.2099 16.5623ZM41.6848 17.1131L42.0637 18.7905L46.9408 17.6889L46.562 16.0115L41.6848 17.1131ZM52.7334 23.21L54.1874 22.2919L51.5177 18.0642L50.0637 18.9824L52.7334 23.21ZM57.0415 25.146L56.1233 26.6L60.3509 29.2696L61.2691 27.8156L57.0415 25.146ZM60.5428 37.2696L62.2202 37.6485L63.3219 32.7714L61.6445 32.3925L60.5428 37.2696ZM62.2202 41.6848L60.5428 42.0637L61.6445 46.9408L63.3219 46.562L62.2202 41.6848ZM56.1233 52.7334L57.0415 54.1874L61.2691 51.5177L60.3509 50.0637L56.1233 52.7334ZM54.1874 57.0415L52.7334 56.1233L50.0637 60.3509L51.5177 61.2691L54.1874 57.0415ZM42.0637 60.5428L41.6848 62.2202L46.562 63.3219L46.9408 61.6445L42.0637 60.5428ZM37.6485 62.2202L37.2696 60.5428L32.3925 61.6445L32.7714 63.3219L37.6485 62.2202ZM26.6 56.1233L25.146 57.0415L27.8156 61.2691L29.2696 60.3509L26.6 56.1233ZM22.2919 54.1874L23.21 52.7334L18.9824 50.0637L18.0642 51.5177L22.2919 54.1874ZM18.7905 42.0637L17.1131 41.6848L16.0115 46.562L17.6889 46.9408L18.7905 42.0637ZM17.1131 37.6485L18.7905 37.2696L17.6889 32.3925L16.0115 32.7714L17.1131 37.6485ZM23.21 26.6L22.2919 25.146L18.0642 27.8156L18.9824 29.2696L23.21 26.6ZM25.146 22.2919L26.6 23.21L29.2696 18.9824L27.8156 18.0642L25.146 22.2919ZM37.2696 18.7905L37.6485 17.1131L32.7714 16.0115L32.3925 17.6889L37.2696 18.7905ZM26.6 23.21C30.7284 25.817 36.1938 23.5532 37.2696 18.7905L32.3925 17.6889C32.0776 19.0828 30.478 19.7454 29.2696 18.9824L26.6 23.21ZM22.2919 25.146C21.1145 23.2816 23.2815 21.1145 25.146 22.2919L27.8156 18.0642C21.4456 14.0417 14.0417 21.4456 18.0642 27.8156L22.2919 25.146ZM18.7905 37.2696C23.5532 36.1938 25.817 30.7284 23.21 26.6L18.9824 29.2696C19.7454 30.478 19.0828 32.0776 17.6889 32.3925L18.7905 37.2696ZM17.1131 41.6848C14.9623 41.199 14.9623 38.1344 17.1131 37.6485L16.0115 32.7714C8.66286 34.4313 8.66283 44.902 16.0115 46.562L17.1131 41.6848ZM23.21 52.7334C25.817 48.6049 23.5532 43.1395 18.7905 42.0637L17.6889 46.9408C19.0828 47.2557 19.7454 48.8554 18.9824 50.0637L23.21 52.7334ZM25.146 57.0415C23.2815 58.2188 21.1145 56.0518 22.2919 54.1874L18.0642 51.5177C14.0417 57.8877 21.4456 65.2916 27.8156 61.2691L25.146 57.0415ZM37.2696 60.5428C36.1938 55.7802 30.7284 53.5163 26.6 56.1233L29.2696 60.3509C30.478 59.5879 32.0776 60.2505 32.3925 61.6445L37.2696 60.5428ZM41.6848 62.2202C41.199 64.371 38.1344 64.3711 37.6485 62.2202L32.7714 63.3219C34.4313 70.6705 44.902 70.6705 46.562 63.3219L41.6848 62.2202ZM52.7334 56.1233C48.6049 53.5163 43.1395 55.7802 42.0637 60.5428L46.9408 61.6445C47.2557 60.2505 48.8554 59.5879 50.0637 60.3509L52.7334 56.1233ZM57.0415 54.1874C58.2188 56.0518 56.0518 58.2188 54.1874 57.0415L51.5177 61.2691C57.8877 65.2916 65.2916 57.8877 61.2691 51.5177L57.0415 54.1874ZM60.5428 42.0637C55.7802 43.1395 53.5163 48.6049 56.1233 52.7334L60.3509 50.0637C59.5879 48.8554 60.2505 47.2557 61.6445 46.9408L60.5428 42.0637ZM62.2202 37.6485C64.371 38.1344 64.3711 41.199 62.2202 41.6848L63.3219 46.562C70.6705 44.902 70.6705 34.4313 63.3219 32.7714L62.2202 37.6485ZM56.1233 26.6C53.5163 30.7284 55.7802 36.1938 60.5428 37.2696L61.6445 32.3925C60.2505 32.0776 59.5879 30.478 60.3509 29.2696L56.1233 26.6ZM54.1874 22.2919C56.0518 21.1145 58.2188 23.2815 57.0415 25.146L61.2691 27.8156C65.2916 21.4456 57.8877 14.0417 51.5177 18.0642L54.1874 22.2919ZM42.0637 18.7905C43.1395 23.5532 48.6049 25.817 52.7334 23.21L50.0637 18.9824C48.8554 19.7454 47.2557 19.0828 46.9408 17.6889L42.0637 18.7905ZM46.562 16.0115C44.902 8.66286 34.4313 8.66283 32.7714 16.0115L37.6485 17.1131C38.1344 14.9623 41.199 14.9623 41.6848 17.1131L46.562 16.0115Z" fill="url(#paint0_linear_88_430)"/>
<path d="M45.3776 39.6667C45.3776 42.8209 42.8206 45.378 39.6663 45.378C36.5121 45.378 33.9551 42.8209 33.9551 39.6667C33.9551 36.5125 36.5121 33.9554 39.6663 33.9554C42.8206 33.9554 45.3776 36.5125 45.3776 39.6667Z" fill="#071947" stroke="url(#paint1_linear_88_430)" stroke-width="5"/>
<defs>
<linearGradient id="paint0_linear_88_430" x1="13" y1="39.6667" x2="66.3333" y2="39.6667" gradientUnits="userSpaceOnUse">
<stop stop-color="#F8CA00"/>
<stop offset="1" stop-color="#F8A400"/>
</linearGradient>
<linearGradient id="paint1_linear_88_430" x1="33.9551" y1="39.6667" x2="45.3776" y2="39.6667" gradientUnits="userSpaceOnUse">
<stop stop-color="#F8CA00"/>
<stop offset="1" stop-color="#F8A400"/>
</linearGradient>
</defs>
</svg>
